<svg xmlns="http://www.w3.org/2000/svg" width="240px" height="120px" viewBox="0 0 240 120"><g transform="translate(0, 1.5)"><g transform="scale(1.0344827586206897)"><g class="nc-icon-wrapper" fill="#d9d7d7"><path fill="#d9d7d7" d="M29 22.27l-9.39 7.73v8.34a0.82 0.82 0 0 0 0.82 0.81l5.69-0.01a0.82 0.82 0 0 0 0.83-0.81v-4.87a0.82 0.82 0 0 1 0.81-0.83h3.25a0.82 0.82 0 0 1 0.81 0.83v4.86a0.82 0.82 0 0 0 0.81 0.82l5.71 0.01a0.82 0.82 0 0 0 0.81-0.81v-8.35l-9.38-7.72a0.62 0.62 0 0 0-0.77 0z m14.81 5.25l-4.24-3.51v-7.04a0.61 0.61 0 0 0-0.62-0.62h-2.85a0.61 0.61 0 0 0-0.62 0.62v3.69l-4.55-3.74a2.45 2.45 0 0 0-3.1 0l-12.88 10.6a0.61 0.61 0 0 0-0.09 0.86l1.31 1.58a0.61 0.61 0 0 0 0.85 0.08l11.98-9.86a0.62 0.62 0 0 1 0.77 0l11.97 9.86a0.61 0.61 0 0 0 0.86-0.08l1.3-1.58a0.61 0.61 0 0 0-0.09-0.86z" class="nc-icon-wrapper"/></g></g></g><g transform="translate(62, 0)"><g transform="scale(1.037037037037037)"><g class="nc-icon-wrapper" fill="#d9d7d7"><path fill="#d9d7d7" d="M27.35 29.17c4 0 7.25-3.25 7.26-7.26s-3.25-7.25-7.26-7.26-7.25 3.25-7.25 7.26 3.25 7.25 7.25 7.26z m5.08 1.81h-0.95a9.87 9.87 0 0 1-8.26 0h-0.95c-4.21 0-7.62 3.41-7.62 7.62v2.36c0 1.51 1.22 2.72 2.72 2.71h19.95c1.51 0 2.72-1.22 2.72-2.71v-2.36c0-4.21-3.41-7.62-7.61-7.62z" class="nc-icon-wrapper"/></g></g></g><g transform="translate(120, 0)"><g transform="scale(1.0344827586206897)"><g class="nc-icon-wrapper" fill="#d9d7d7"><path fill="#d9d7d7" d="M31.38 20.05l7.32 7.34-15.92 15.92-6.53 0.72a1.38 1.38 0 0 1-1.51-1.52l0.73-6.54 15.91-15.92z m11.85-1.07l-3.44-3.45a2.75 2.75 0 0 0-3.88 0l-3.24 3.24 7.33 7.33 3.23-3.24a2.75 2.75 0 0 0 0-3.88z" class="nc-icon-wrapper"/></g></g></g><g transform="translate(180, 0)"><g transform="scale(1.0344827586206897)"><g class="nc-icon-wrapper" fill="#d9d7d7"><path fill="#d9d7d7" d="M29.38 15.19c-7.85 0-14.2 6.35-14.19 14.19s6.35 14.2 14.19 14.2c2.75 0 5.45-0.81 7.76-2.3a1.37 1.37 0 0 0 0.31-2.03l-0.58-0.7c-0.44-0.53-1.22-0.66-1.8-0.3a10.51 10.51 0 0 1-5.69 1.66c-5.81 0-10.53-4.72-10.53-10.53s4.72-10.53 10.53-10.53c5.73 0 10.53 3.3 10.53 9.15 0 2.22-1.21 4.57-3.32 4.8-0.99-0.03-0.97-0.74-0.78-1.72l1.35-6.93c0.16-0.84-0.49-1.63-1.36-1.64h-2.57a0.78 0.78 0 0 0-0.78 0.69c-0.84-1.03-2.31-1.25-3.43-1.23-4.26 0-7.88 3.56-7.88 8.66 0 3.73 2.1 6.07 5.49 6.06 1.55 0 3.28-0.89 4.29-2.19 0.55 1.95 2.32 1.95 4.05 1.95 6.23 0 8.61-4.11 8.61-8.45 0-7.81-6.29-12.82-14.2-12.81z m-1.23 17.43c-1.27 0-2.07-0.89-2.08-2.34 0-2.57 1.77-4.16 3.37-4.17 1.28 0 2.04 0.87 2.03 2.34 0 2.58-1.94 4.16-3.32 4.17z" class="nc-icon-wrapper"/></g></g></g><g transform="translate(0, 61.5)"><g transform="scale(1.0344827586206897)"><g class="nc-icon-wrapper" fill="#191919"><path fill="#191919" d="M29 22.27l-9.39 7.73v8.34a0.82 0.82 0 0 0 0.82 0.81l5.69-0.01a0.82 0.82 0 0 0 0.83-0.81v-4.87a0.82 0.82 0 0 1 0.81-0.83h3.25a0.82 0.82 0 0 1 0.81 0.83v4.86a0.82 0.82 0 0 0 0.81 0.82l5.71 0.01a0.82 0.82 0 0 0 0.81-0.81v-8.35l-9.38-7.72a0.62 0.62 0 0 0-0.77 0z m14.81 5.25l-4.24-3.51v-7.04a0.61 0.61 0 0 0-0.62-0.62h-2.85a0.61 0.61 0 0 0-0.62 0.62v3.69l-4.55-3.74a2.45 2.45 0 0 0-3.1 0l-12.88 10.6a0.61 0.61 0 0 0-0.09 0.86l1.31 1.58a0.61 0.61 0 0 0 0.85 0.08l11.98-9.86a0.62 0.62 0 0 1 0.77 0l11.97 9.86a0.61 0.61 0 0 0 0.86-0.08l1.3-1.58a0.61 0.61 0 0 0-0.09-0.86z" class="nc-icon-wrapper"/></g></g></g><g transform="translate(62, 60)"><g transform="scale(1.037037037037037)"><g class="nc-icon-wrapper" fill="#191919"><path fill="#191919" d="M27.35 29.17c4 0 7.25-3.25 7.26-7.26s-3.25-7.25-7.26-7.26-7.25 3.25-7.25 7.26 3.25 7.25 7.25 7.26z m5.08 1.81h-0.95a9.87 9.87 0 0 1-8.26 0h-0.95c-4.21 0-7.62 3.41-7.62 7.62v2.36c0 1.51 1.22 2.72 2.72 2.71h19.95c1.51 0 2.72-1.22 2.72-2.71v-2.36c0-4.21-3.41-7.62-7.61-7.62z" class="nc-icon-wrapper"/></g></g></g><g transform="translate(120, 60)"><g transform="scale(1.0344827586206897)"><g class="nc-icon-wrapper" fill="#191919"><path fill="#191919" d="M31.38 20.05l7.32 7.34-15.92 15.92-6.53 0.72a1.38 1.38 0 0 1-1.51-1.52l0.73-6.54 15.91-15.92z m11.85-1.07l-3.44-3.45a2.75 2.75 0 0 0-3.88 0l-3.24 3.24 7.33 7.33 3.23-3.24a2.75 2.75 0 0 0 0-3.88z" class="nc-icon-wrapper"/></g></g></g><g transform="translate(180, 60)"><g transform="scale(1.0344827586206897)"><g class="nc-icon-wrapper" fill="#191919"><path fill="#191919" d="M29.38 15.19c-7.85 0-14.2 6.35-14.19 14.19s6.35 14.2 14.19 14.2c2.75 0 5.45-0.81 7.76-2.3a1.37 1.37 0 0 0 0.31-2.03l-0.58-0.7c-0.44-0.53-1.22-0.66-1.8-0.3a10.51 10.51 0 0 1-5.69 1.66c-5.81 0-10.53-4.72-10.53-10.53s4.72-10.53 10.53-10.53c5.73 0 10.53 3.3 10.53 9.15 0 2.22-1.21 4.57-3.32 4.8-0.99-0.03-0.97-0.74-0.78-1.72l1.35-6.93c0.16-0.84-0.49-1.63-1.36-1.64h-2.57a0.78 0.78 0 0 0-0.78 0.69c-0.84-1.03-2.31-1.25-3.43-1.23-4.26 0-7.88 3.56-7.88 8.66 0 3.73 2.1 6.07 5.49 6.06 1.55 0 3.28-0.89 4.29-2.19 0.55 1.95 2.32 1.95 4.05 1.95 6.23 0 8.61-4.11 8.61-8.45 0-7.81-6.29-12.82-14.2-12.81z m-1.23 17.43c-1.27 0-2.07-0.89-2.08-2.34 0-2.57 1.77-4.16 3.37-4.17 1.28 0 2.04 0.87 2.03 2.34 0 2.58-1.94 4.16-3.32 4.17z" class="nc-icon-wrapper"/></g></g></g></svg>